<svg width="24" height="24" viewBox="0 0 24 24" fill="none" xmlns="http://www.w3.org/2000/svg">
<path d="M22.9922 18.002H19.9922V15.002H17.9922V18.002H14.9922V20.002H17.9922V23.002H19.9922V20.002H22.9922M5.99219 2.00195C4.88219 2.00195 3.99219 2.90195 3.99219 4.00195V20.002C3.99219 21.112 4.88219 22.002 5.99219 22.002H13.8022C13.4422 21.382 13.1922 20.702 13.0722 20.002H5.99219V4.00195H12.9922V9.00195H17.9922V13.082C18.3222 13.032 18.6622 13.002 18.9922 13.002C19.3322 13.002 19.6622 13.032 19.9922 13.082V8.00195L13.9922 2.00195M7.99219 12.002V14.002H15.9922V12.002M7.99219 16.002V18.002H12.9922V16.002H7.99219Z" fill="#4A4FC4"/>
</svg>
