<svg width="24" height="24" viewBox="0 0 24 24" fill="none" xmlns="http://www.w3.org/2000/svg">
<path d="M9.99219 20.002H5.99219V4.00195H12.9922V9.00195H17.9922V12.102L19.9922 10.102V8.00195L13.9922 2.00195H5.99219C4.89219 2.00195 3.99219 2.90195 3.99219 4.00195V20.002C3.99219 21.102 4.89219 22.002 5.99219 22.002H9.99219V20.002ZM20.1922 13.002C20.2922 13.002 20.4922 13.102 20.5922 13.202L21.8922 14.502C22.0922 14.702 22.0922 15.102 21.8922 15.302L20.8922 16.302L18.7922 14.202L19.7922 13.202C19.8922 13.102 19.9922 13.002 20.1922 13.002ZM20.1922 16.902L14.0922 23.002H11.9922V20.902L18.0922 14.802L20.1922 16.902Z" fill="#4A4FC4"/>
</svg>
