<svg width="24" height="24" viewBox="0 0 24 24" fill="none" xmlns="http://www.w3.org/2000/svg">
<path d="M5.99219 2.00195C5.46175 2.00195 4.95305 2.21267 4.57797 2.58774C4.2029 2.96281 3.99219 3.47152 3.99219 4.00195V20.002C3.99219 20.5324 4.2029 21.0411 4.57797 21.4162C4.95305 21.7912 5.46175 22.002 5.99219 22.002H17.9922C18.5226 22.002 19.0313 21.7912 19.4064 21.4162C19.7815 21.0411 19.9922 20.5324 19.9922 20.002V8.00195L13.9922 2.00195H5.99219ZM5.99219 4.00195H12.9922V9.00195H17.9922V20.002H5.99219V4.00195ZM7.99219 12.002V14.002H15.9922V12.002H7.99219ZM7.99219 16.002V18.002H12.9922V16.002H7.99219Z" fill="#4A4FC4"/>
</svg>
